<svg xmlns="http://www.w3.org/2000/svg" xmlns:xlink="http://www.w3.org/1999/xlink" version="1.1" viewBox="0 0 25 25" preserveAspectRatio="xMidYMid meet" style="width: 200px; height: 200px; transform-origin: 50% 50%; transform: scaleX(1) scaleY(1) rotate(0deg);">
<path id="Edit-Clipboard" d="M24.160,16.654 C21.801,19.016 19.441,21.378 17.076,23.734 C16.972,23.838 16.824,23.920 16.682,23.961 C15.558,24.281 14.430,24.589 13.305,24.902 C13.224,24.925 13.150,24.967 13.073,25.000 C12.986,25.000 12.899,25.000 12.812,25.000 C12.494,24.772 12.460,24.669 12.583,24.277 C12.939,23.138 13.292,21.997 13.656,20.859 C13.693,20.742 13.774,20.626 13.862,20.538 C16.416,17.979 18.973,15.423 21.530,12.867 C21.863,12.534 22.043,12.532 22.382,12.869 C23.187,13.670 23.990,14.474 24.790,15.280 C24.873,15.364 24.931,15.475 25.000,15.573 C25.000,15.642 25.000,15.712 25.000,15.781 C24.720,16.073 24.445,16.368 24.160,16.654 zM13.542,23.982 C14.362,23.754 15.116,23.544 15.817,23.349 C15.299,22.817 14.779,22.283 14.245,21.734 C14.016,22.467 13.786,23.201 13.542,23.982 zM14.742,20.925 C15.380,21.568 16.044,22.238 16.668,22.866 C18.384,21.150 20.108,19.427 21.814,17.721 C21.176,17.083 20.509,16.418 19.880,15.789 C18.167,17.501 16.442,19.225 14.742,20.925 zM21.944,13.665 C21.469,14.140 20.975,14.635 20.494,15.118 C21.160,15.789 21.824,16.458 22.477,17.115 C22.964,16.630 23.458,16.136 23.939,15.658 C23.279,14.999 22.608,14.328 21.944,13.665 zM17.014,10.260 C16.795,10.230 16.673,10.059 16.672,9.756 C16.668,8.905 16.669,8.055 16.669,7.204 C16.669,6.275 16.670,5.347 16.670,4.418 C16.670,4.342 16.662,4.266 16.658,4.177 C15.550,4.177 14.460,4.177 13.349,4.177 C13.349,4.441 13.349,4.705 13.349,5.003 C13.439,5.003 13.531,5.003 13.623,5.003 C14.187,5.003 14.751,5.001 15.315,5.005 C15.656,5.007 15.826,5.158 15.827,5.491 C15.833,6.984 15.831,8.476 15.827,9.969 C15.826,10.216 15.642,10.402 15.431,10.403 C15.192,10.403 15.012,10.218 15.005,9.939 C14.996,9.584 15.003,9.228 15.003,8.872 C15.003,7.943 15.004,7.014 15.003,6.086 C15.003,6.010 14.995,5.934 14.991,5.844 C14.440,5.844 13.905,5.844 13.330,5.844 C13.330,6.184 13.330,6.527 13.330,6.870 C13.329,7.359 13.196,7.496 12.719,7.496 C10.071,7.497 7.424,7.497 4.777,7.496 C4.305,7.495 4.172,7.360 4.171,6.893 C4.170,6.548 4.170,6.203 4.170,5.830 C3.880,5.830 3.614,5.830 3.347,5.830 C3.079,5.830 2.810,5.830 2.519,5.830 C2.519,10.549 2.519,15.257 2.519,20.004 C2.600,20.004 2.691,20.004 2.783,20.004 C5.100,20.004 7.417,20.004 9.735,20.004 C10.052,20.004 10.230,20.123 10.264,20.352 C10.307,20.634 10.111,20.826 9.760,20.828 C8.918,20.833 8.076,20.832 7.234,20.832 C5.576,20.831 3.919,20.830 2.261,20.830 C1.818,20.830 1.669,20.682 1.668,20.236 C1.668,15.367 1.668,10.498 1.669,5.629 C1.669,5.134 1.804,5.003 2.308,5.002 C2.915,5.001 3.522,5.002 4.150,5.002 C4.150,4.729 4.150,4.466 4.150,4.182 C3.055,4.182 1.958,4.182 0.829,4.182 C0.829,4.669 0.829,5.152 0.829,5.635 C0.829,10.522 0.829,15.408 0.830,20.295 C0.830,21.375 1.135,21.671 2.207,21.670 C4.889,21.668 7.571,21.671 10.253,21.669 C10.478,21.669 10.672,21.710 10.765,21.938 C10.886,22.234 10.671,22.492 10.292,22.495 C9.424,22.501 8.556,22.499 7.688,22.498 C5.856,22.498 4.025,22.498 2.194,22.495 C2.012,22.495 1.828,22.488 1.648,22.465 C0.725,22.342 0.246,21.892 0.053,20.977 C0.043,20.927 0.018,20.881 -0.000,20.833 C-0.000,15.104 -0.000,9.375 -0.000,3.646 C0.140,3.398 0.356,3.331 0.631,3.333 C1.715,3.342 2.799,3.336 3.883,3.335 C3.974,3.335 4.065,3.335 4.170,3.335 C4.170,2.950 4.170,2.603 4.169,2.257 C4.168,1.819 4.321,1.669 4.765,1.669 C5.285,1.670 5.805,1.670 6.332,1.670 C6.350,1.619 6.368,1.581 6.378,1.541 C6.544,0.883 6.958,0.443 7.586,0.218 C7.876,0.114 8.188,0.071 8.490,-0.000 C8.715,-0.000 8.941,-0.000 9.167,-0.000 C9.492,0.083 9.828,0.137 10.140,0.255 C10.719,0.474 11.099,0.896 11.250,1.504 C11.285,1.643 11.357,1.675 11.489,1.673 C11.914,1.666 12.339,1.670 12.765,1.670 C13.173,1.671 13.328,1.824 13.331,2.237 C13.334,2.592 13.332,2.946 13.332,3.337 C13.452,3.337 13.552,3.337 13.653,3.337 C14.747,3.337 15.840,3.336 16.934,3.337 C17.338,3.338 17.495,3.485 17.495,3.880 C17.497,5.842 17.497,7.803 17.495,9.765 C17.495,10.113 17.307,10.300 17.014,10.260 zM12.491,2.496 C12.054,2.496 11.631,2.494 11.208,2.496 C10.639,2.499 10.565,2.439 10.492,1.882 C10.438,1.466 10.223,1.168 9.837,1.017 C9.173,0.757 8.496,0.763 7.830,1.006 C7.406,1.160 7.192,1.492 7.142,1.934 C7.090,2.395 6.980,2.496 6.517,2.496 C6.017,2.496 5.517,2.496 5.012,2.496 C5.012,3.901 5.012,5.275 5.012,6.656 C7.511,6.656 9.995,6.656 12.491,6.656 C12.491,5.275 12.491,3.907 12.491,2.496 zM7.745,14.997 C7.077,14.997 6.410,14.998 5.742,14.998 C5.519,14.998 5.330,14.903 5.294,14.685 C5.274,14.556 5.341,14.373 5.433,14.278 C5.514,14.196 5.685,14.176 5.817,14.174 C6.649,14.166 7.482,14.170 8.314,14.170 C8.314,14.169 8.314,14.169 8.314,14.169 C9.146,14.169 9.978,14.168 10.811,14.169 C11.142,14.169 11.336,14.346 11.314,14.622 C11.293,14.870 11.122,14.995 10.788,14.996 C9.773,14.997 8.759,14.997 7.745,14.997 zM5.770,17.495 C5.465,17.494 5.268,17.330 5.269,17.087 C5.271,16.843 5.463,16.674 5.767,16.672 C6.765,16.668 7.763,16.668 8.761,16.672 C9.032,16.673 9.210,16.837 9.218,17.068 C9.226,17.312 9.055,17.487 8.764,17.493 C8.252,17.503 7.740,17.495 7.228,17.495 C7.228,17.496 7.228,17.496 7.228,17.496 C6.742,17.496 6.256,17.498 5.770,17.495 zM10.828,12.494 C9.979,12.500 9.130,12.496 8.280,12.496 C7.440,12.496 6.599,12.499 5.759,12.495 C5.402,12.493 5.186,12.235 5.296,11.950 C5.385,11.719 5.582,11.671 5.803,11.671 C6.981,11.671 8.160,11.670 9.338,11.670 C9.832,11.670 10.326,11.668 10.820,11.671 C11.133,11.673 11.316,11.827 11.316,12.078 C11.316,12.334 11.141,12.492 10.828,12.494 zM10.811,9.997 C9.962,10.001 9.112,9.998 8.263,9.998 C8.263,9.998 8.263,9.997 8.263,9.997 C7.422,9.997 6.581,9.996 5.740,9.997 C5.528,9.997 5.344,9.915 5.306,9.707 C5.282,9.577 5.331,9.393 5.416,9.294 C5.491,9.209 5.664,9.176 5.793,9.175 C7.466,9.168 9.139,9.169 10.812,9.171 C11.125,9.171 11.318,9.329 11.320,9.570 C11.322,9.831 11.134,9.995 10.811,9.997 z" fill="#D4AF37" style="fill:#D4AF37;stroke:none" stroke="none" class=""/>
</svg>